<?xml version="1.0" encoding="UTF-8"?>
<svg version="1.1" xmlns="http://www.w3.org/2000/svg" width="1024" height="1024">
<path d="M0 0 C337.92 0 675.84 0 1024 0 C1024 337.92 1024 675.84 1024 1024 C686.08 1024 348.16 1024 0 1024 C0 686.08 0 348.16 0 0 Z " fill="#363D46" transform="translate(0,0)"/>
<path d="M0 0 C6.39718902 4.82966588 9.74620702 12.1863284 11.4375 19.875 C11.80772105 24.24713433 11.86993655 28.58798564 11.82861328 32.97460938 C11.81269724 34.97520718 11.82996937 36.97597957 11.84765625 38.9765625 C11.82002303 48.33501436 10.58514163 56.78054491 8.4375 65.875 C10.1390625 66.1534375 10.1390625 66.1534375 11.875 66.4375 C29.21052863 70.34756403 46.02065824 79.52337016 56.87890625 93.765625 C60.7151465 100.12816981 60.56926248 108.02458938 58.91796875 115.1015625 C52.75127372 129.8651772 35.66928087 137.85801095 21.9375 143.8125 C17.49258112 145.57346513 13.11265853 146.88602416 8.4375 147.875 C8.74494141 148.85339844 8.74494141 148.85339844 9.05859375 149.8515625 C9.32800781 150.72554687 9.59742188 151.59953125 9.875 152.5 C10.14183594 153.35851562 10.40867187 154.21703125 10.68359375 155.1015625 C15.09953469 171.34673382 14.04617077 191.3186793 6.15234375 206.19921875 C3.00294506 211.11342856 -1.1360693 214.68091972 -6.5625 216.875 C-23.64265616 218.91512976 -38.25922332 210.67502422 -51.33251953 200.53344727 C-54.09789937 198.34057894 -56.8288855 196.10733163 -59.5625 193.875 C-60.8890622 192.86603494 -62.21901274 191.86131626 -63.5625 190.875 C-64.35011719 191.57625 -65.13773438 192.2775 -65.94921875 193 C-80.39217596 205.66419065 -97.49363339 217.53921591 -117.42578125 217.26953125 C-123.79998823 216.46779413 -128.51398132 213.50152395 -132.4453125 208.4609375 C-141.59757016 193.826168 -141.7173213 174.20315474 -138.0625 157.6875 C-137.7840625 156.62144531 -137.505625 155.55539062 -137.21875 154.45703125 C-136.43933562 151.83442727 -136.43933562 151.83442727 -136.5625 148.875 C-137.57828125 148.51148438 -138.5940625 148.14796875 -139.640625 147.7734375 C-156.6642374 141.59700426 -175.65832185 134.07117265 -184.94140625 117.3984375 C-187.85053494 110.85036385 -189.10312222 105.02144028 -186.5625 98.18359375 C-178.38811636 81.48648626 -160.19172795 73.14340045 -143.5625 66.875 C-141.2394497 66.15817305 -138.90995127 65.51008795 -136.5625 64.875 C-137.02794243 61.52884632 -137.50582083 58.19356177 -138.09765625 54.8671875 C-140.84823791 38.6081937 -142.61459399 19.4579716 -132.625 5.3125 C-128.16881625 -0.00798135 -124.53418266 -2.75822192 -117.6015625 -3.3984375 C-99.05898141 -3.95004746 -84.44108767 5.39311622 -70.5625 16.875 C-69.94117188 17.38546875 -69.31984375 17.8959375 -68.6796875 18.421875 C-67.29998109 19.56414356 -65.92987108 20.7179937 -64.5625 21.875 C-61.0304991 20.32616434 -58.42140387 18.18725795 -55.5 15.6875 C-41.01701997 3.68896734 -18.66044929 -11.89303313 0 0 Z " fill="#01D4FB" transform="translate(849.5625,266.125)"/>
<path d="M0 0 C1.57593933 0.01308197 1.57593933 0.01308197 3.18371582 0.02642822 C22.73644643 0.3243251 22.73644643 0.3243251 28.52734375 6 C31.37550653 10.11034067 32.90963235 14.54798945 34.27294922 19.33154297 C35.79434202 23.97857352 38.44265825 27.92389455 41 32.0625 C41.85936861 33.4976017 42.70095096 34.94359169 43.51953125 36.40234375 C44.04123901 37.30327759 44.04123901 37.30327759 44.57348633 38.22241211 C45.67389806 41.63215709 44.54940691 44.32677773 43.11523438 47.48999023 C42.67501953 48.29637939 42.23480469 49.10276855 41.78125 49.93359375 C41.28979492 50.83956299 40.79833984 51.74553223 40.29199219 52.67895508 C38.1145213 56.59224002 35.91764621 60.49415018 33.70507812 64.38769531 C32.37884662 66.77986192 31.15033951 69.19023163 29.953125 71.6484375 C27.4609872 76.51524468 25.34815229 80.42027112 19.91796875 82.19140625 C16.43537835 82.4747478 13.19876864 82.46531989 9.72314453 82.24804688 C6.81760512 82.10705016 3.93594152 82.13082714 1.02734375 82.171875 C-4.92409157 82.24820423 -10.86235127 82.2841264 -16.8125 82.125 C-17.91851563 82.13015625 -19.02453125 82.1353125 -20.1640625 82.140625 C-24.58409194 80.44562846 -26.24018163 76.71349576 -28.5625 72.75 C-29.32759888 71.48615479 -29.32759888 71.48615479 -30.1081543 70.19677734 C-31.70723275 67.52297345 -33.26601615 64.82953049 -34.8125 62.125 C-35.32055176 61.24070312 -35.82860352 60.35640625 -36.35205078 59.4453125 C-37.80176517 56.89328508 -39.22083626 54.32733294 -40.625 51.75 C-41.06360352 50.96061035 -41.50220703 50.1712207 -41.95410156 49.35791016 C-42.34694336 48.61331543 -42.73978516 47.8687207 -43.14453125 47.1015625 C-43.66623901 46.12823975 -43.66623901 46.12823975 -44.19848633 45.13525391 C-45.26331679 41.64904555 -44.20514972 38.99102865 -42.74023438 35.76000977 C-42.30001953 34.95362061 -41.85980469 34.14723145 -41.40625 33.31640625 C-40.90867187 32.40310547 -40.41109375 31.48980469 -39.8984375 30.54882812 C-39.37507812 29.60458984 -38.85171875 28.66035156 -38.3125 27.6875 C-37.82007813 26.77806641 -37.32765625 25.86863281 -36.8203125 24.93164062 C-35.77103922 23.02084474 -34.68753921 21.12854306 -33.57495117 19.25390625 C-32.27055918 16.9381994 -31.22430965 14.78455072 -30.20043945 12.35546875 C-24.03204926 -0.97893571 -13.42898931 -0.33477676 0 0 Z " fill="#353F48" transform="translate(785.8125,330.875)"/>
<path d="M0 0 C6.331875 -0.061875 12.66375 -0.12375 19.1875 -0.1875 C22.1423938 -0.22846802 22.1423938 -0.22846802 25.15698242 -0.27026367 C38.35087332 -0.37768684 51.60780606 -0.30048872 62 9 C68.79658119 16.21483234 71.57189125 23.9860658 71.4375 33.8125 C71.42920166 34.59931152 71.42090332 35.38612305 71.41235352 36.19677734 C71.13986953 45.6396564 68.68097717 53.35290822 62.05078125 60.28125 C53.36055171 67.56449 43.00840338 69.32502021 32.03125 69.1953125 C31.21366211 69.19329834 30.39607422 69.19128418 29.55371094 69.18920898 C26.5357492 69.1788428 23.51786822 69.15092118 20.5 69.125 C13.735 69.08375 6.97 69.0425 0 69 C0 46.23 0 23.46 0 0 Z " fill="#383D47" transform="translate(710,501)"/>
<path d="M0 0 C7.755 -0.0825 15.51 -0.165 23.5 -0.25 C25.93310547 -0.28641602 28.36621094 -0.32283203 30.87304688 -0.36035156 C32.82160563 -0.37204418 34.77017423 -0.38223465 36.71875 -0.390625 C37.71422852 -0.41108887 38.70970703 -0.43155273 39.73535156 -0.45263672 C47.05757605 -0.45627238 52.49496569 0.90732267 58.05859375 5.81640625 C58.74115234 6.68072266 58.74115234 6.68072266 59.4375 7.5625 C59.91058594 8.14128906 60.38367188 8.72007812 60.87109375 9.31640625 C63.48572728 13.2157386 63.46437207 17.4766721 63 22 C61.14325064 27.26078987 58.32651785 29.7310754 54 33 C54.54269531 33.36351562 55.08539062 33.72703125 55.64453125 34.1015625 C60.10207851 37.233893 63.31186482 39.61906912 65 45 C65.95797644 51.51181455 64.7376545 56.5902369 61 62 C55.94945254 67.33915017 48.83734575 69.13206541 41.66381836 69.34057617 C39.72242877 69.33983772 37.78098989 69.32372166 35.83984375 69.29296875 C34.92497192 69.28994751 34.0101001 69.28692627 33.06750488 69.28381348 C29.69071977 69.26826516 26.31409705 69.22638265 22.9375 69.1875 C11.5834375 69.0946875 11.5834375 69.0946875 0 69 C0 46.23 0 23.46 0 0 Z " fill="#DD50AD" transform="translate(536,501)"/>
<path d="M0 0 C7.755 -0.0825 15.51 -0.165 23.5 -0.25 C25.93310547 -0.28641602 28.36621094 -0.32283203 30.87304688 -0.36035156 C32.82160563 -0.37204418 34.77017423 -0.38223465 36.71875 -0.390625 C37.71422852 -0.41108887 38.70970703 -0.43155273 39.73535156 -0.45263672 C47.05757605 -0.45627238 52.49496569 0.90732267 58.05859375 5.81640625 C58.74115234 6.68072266 58.74115234 6.68072266 59.4375 7.5625 C59.91058594 8.14128906 60.38367188 8.72007812 60.87109375 9.31640625 C63.48572728 13.2157386 63.46437207 17.4766721 63 22 C61.14325064 27.26078987 58.32651785 29.7310754 54 33 C54.54269531 33.36351562 55.08539063 33.72703125 55.64453125 34.1015625 C60.10207851 37.233893 63.31186482 39.61906912 65 45 C65.95797644 51.51181455 64.7376545 56.5902369 61 62 C55.94945254 67.33915017 48.83734575 69.13206541 41.66381836 69.34057617 C39.72242877 69.33983772 37.78098989 69.32372166 35.83984375 69.29296875 C34.92497192 69.28994751 34.0101001 69.28692627 33.06750488 69.28381348 C29.69071977 69.26826516 26.31409705 69.22638265 22.9375 69.1875 C11.5834375 69.0946875 11.5834375 69.0946875 0 69 C0 46.23 0 23.46 0 0 Z " fill="#DD50AD" transform="translate(118,501)"/>
<path d="M0 0 C7.425 -0.061875 14.85 -0.12375 22.5 -0.1875 C24.82869141 -0.21481201 27.15738281 -0.24212402 29.55664062 -0.27026367 C31.42317182 -0.27903378 33.2897088 -0.28667647 35.15625 -0.29296875 C36.10854492 -0.30831665 37.06083984 -0.32366455 38.04199219 -0.33947754 C46.95719496 -0.342942 53.52656542 1.68069482 60 8 C63.09507208 12.86519892 62.60195974 18.44859349 62 24 C59.83790609 28.56442047 57.49407656 30.75296172 53 33 C53.54269531 33.30292969 54.08539062 33.60585938 54.64453125 33.91796875 C55.71767578 34.54638672 55.71767578 34.54638672 56.8125 35.1875 C57.52019531 35.59355469 58.22789062 35.99960937 58.95703125 36.41796875 C62.35077943 39.04601467 63.81549522 41.65600929 64.3984375 45.90234375 C64.33977678 53.49890636 63.8729559 58.1270441 58.3125 63.6875 C51.35901973 68.98586522 44.35845205 69.42567816 35.9375 69.29296875 C34.56368164 69.28843689 34.56368164 69.28843689 33.16210938 69.28381348 C29.77462325 69.2682398 26.38729907 69.22635674 23 69.1875 C15.41 69.125625 7.82 69.06375 0 69 C0 46.23 0 23.46 0 0 Z " fill="#DD50AD" transform="translate(609,501)"/>
<path d="M0 0 C1.46972656 2.42089844 1.46972656 2.42089844 2.640625 5.609375 C3.07117188 6.75664062 3.50171875 7.90390625 3.9453125 9.0859375 C4.37585938 10.29507812 4.80640625 11.50421875 5.25 12.75 C5.69601562 13.94367188 6.14203125 15.13734375 6.6015625 16.3671875 C11.71226184 30.21253663 11.71226184 30.21253663 8.98046875 36.78125 C8.53509766 37.87050781 8.08972656 38.95976562 7.63085938 40.08203125 C7.15455078 41.20996094 6.67824219 42.33789062 6.1875 43.5 C5.49043945 45.19189453 5.49043945 45.19189453 4.77929688 46.91796875 C3.91236136 49.02000751 3.04012752 51.11987456 2.16088867 53.21679688 C1.08261153 55.80194082 0.03333011 58.39661438 -1 61 C-6.31458851 60.45685318 -10.80009177 59.12844844 -15.6875 56.9375 C-16.38230469 56.62731934 -17.07710937 56.31713867 -17.79296875 55.99755859 C-28.11537945 51.24668805 -37.27421054 45.34239797 -44 36 C-45.51100496 31.46698513 -46.11687681 27.36649716 -44.046875 22.98046875 C-35.81985458 10.99455107 -20.30302713 3.961055 -6.96484375 -0.6875 C-4.27198096 -1.11578832 -2.59236079 -0.88727301 0 0 Z " fill="#353E48" transform="translate(718,343)"/>
<path d="M0 0 C29.52997536 -0.82147808 29.52997536 -0.82147808 37.60546875 6.703125 C39.75662819 9.3062019 41.36246814 12.1841878 42.93261719 15.17285156 C44.90513576 18.54941354 47.54987184 21.38662442 50.125 24.3125 C51.06628257 25.41175245 52.00650105 26.5119176 52.9453125 27.61328125 C53.96238281 28.79470703 53.96238281 28.79470703 55 30 C51.87735659 34.29266613 48.42932238 37.27756995 44.1875 40.375 C43.21248535 41.09018799 43.21248535 41.09018799 42.21777344 41.81982422 C31.4963193 49.44013764 19.42935869 55.58099351 6 54 C0.59654199 50.36093644 -1.0047454 44.98576379 -3 39 C-3.23450573 35.40043563 -3.19007377 31.79392112 -3.1875 28.1875 C-3.18741943 27.15536377 -3.18733887 26.12322754 -3.18725586 25.05981445 C-3.04636343 6.09272685 -3.04636343 6.09272685 0 0 Z " fill="#353E47" transform="translate(724,418)"/>
<path d="M0 0 C5.16804429 4.57741066 7.70565481 11.17721166 8.39379883 17.97558594 C8.49304843 20.21703686 8.51497445 22.44390562 8.5 24.6875 C8.49871094 25.49936768 8.49742187 26.31123535 8.49609375 27.14770508 C8.3567499 36.22160235 6.86168675 45.03840019 5.1875 53.9375 C-0.90563133 54.12117237 -6.43250152 53.2326165 -12.39282227 52.05004883 C-16.4825861 51.26520726 -20.07176244 50.92603631 -24.25 51.125 C-27.94742747 50.83095754 -28.75869379 49.99810636 -31.28515625 47.15234375 C-33.04799177 44.74120675 -34.66340672 42.2516786 -36.26953125 39.734375 C-39.31083695 35.00478073 -43.10965646 31.20073376 -47.07421875 27.2421875 C-48.8125 24.9375 -48.8125 24.9375 -48.90234375 22.92578125 C-43.35061731 12.79736276 -26.39134151 3.77922702 -15.9375 -0.125 C-10.53717873 -1.62282495 -5.28509951 -1.99659315 0 0 Z " fill="#353E48" transform="translate(842.8125,274.0625)"/>
<path d="M0 0 C13.34475645 4.74734001 24.3788939 13.02364208 35.0078125 22.19921875 C34.4400313 26.05139581 32.72780534 27.86713483 30.0703125 30.63671875 C25.34523136 35.71826669 21.15329862 41.08082523 16.9765625 46.609375 C15.0078125 49.19921875 15.0078125 49.19921875 14.0078125 50.19921875 C11.17386538 50.55346214 8.34951034 50.86064561 5.5078125 51.13671875 C-1.92012205 51.8933619 -1.92012205 51.8933619 -9.2421875 53.32421875 C-12.68749484 54.1281238 -15.48427518 54.26858425 -18.9921875 54.19921875 C-21.27186682 44.84981962 -22.31128867 35.8833047 -22.3671875 26.26171875 C-22.38072266 25.30386475 -22.39425781 24.34601074 -22.40820312 23.35913086 C-22.35035919 14.10490487 -20.53124609 6.90594551 -13.9921875 0.19921875 C-9.54638142 -2.02368429 -4.63085416 -1.23932781 0 0 Z " fill="#353E47" transform="translate(742.9921875,273.80078125)"/>
<path d="M0 0 C1.80330116 8.20927431 2.36555904 16.10698916 2.375 24.5 C2.39949219 25.64597656 2.42398438 26.79195313 2.44921875 27.97265625 C2.47785119 36.36196094 1.59131697 45.78549246 -4.5 52.1875 C-10.38357454 55.2343511 -16.21356291 54.92366117 -22.578125 53.37109375 C-33.92601477 49.28951404 -48.27799725 40.08300412 -55 30 C-54.47792969 29.37996094 -53.95585938 28.75992187 -53.41796875 28.12109375 C-52.68191406 27.23550781 -51.94585938 26.34992188 -51.1875 25.4375 C-50.33800781 24.44363281 -49.48851562 23.44976562 -48.61328125 22.42578125 C-46.71934069 20.09186902 -45.34158569 17.81275491 -44.04296875 15.10546875 C-40.93989528 9.14245675 -38.13596081 5.05963164 -31.54052734 2.83105469 C-8.69039371 -2.91878754 -8.69039371 -2.91878754 0 0 Z " fill="#353E47" transform="translate(849,418)"/>
<path d="M0 0 C17.17542471 3.01323241 33.32730611 10.90619601 44 25 C45.79560085 28.59120171 45.06400771 32.22760904 44 36 C35.83072121 49.22645138 18.34954622 57.4611455 4 62 C3.01 62 2.02 62 1 62 C0.74307373 61.30438965 0.48614746 60.6087793 0.22143555 59.89208984 C-0.95303068 56.71841406 -2.13271462 53.54670208 -3.3125 50.375 C-3.71662109 49.28058594 -4.12074219 48.18617188 -4.53710938 47.05859375 C-6.89688191 40.69680356 -6.89688191 40.69680356 -9.85546875 34.6015625 C-11.58746755 30.6646642 -10.73886143 28.02082197 -9.29785156 24.07958984 C-8.44454843 21.93111258 -7.54273372 19.80921352 -6.625 17.6875 C-4.15690712 11.85365459 -1.8724517 6.05793197 0 0 Z " fill="#353E47" transform="translate(854,342)"/>
<path d="M0 0 C3.97103517 3.16380835 6.14581815 6.33565026 6.9128418 11.39355469 C6.92742432 12.64813477 6.94200684 13.90271484 6.95703125 15.1953125 C6.97827812 16.20757904 6.97827812 16.20757904 6.99995422 17.24029541 C7.04157781 19.37650871 7.05704643 21.51187725 7.0703125 23.6484375 C7.09939865 25.7988892 7.13391626 27.94913022 7.17280579 30.09942627 C7.20546527 32.03977516 7.22358243 33.98035258 7.2409668 35.92089844 C7.17836189 38.82632464 7.17836189 38.82632464 8.3828125 40.8984375 C12.09880441 41.09930193 13.15489695 41.0503812 16.3828125 38.8984375 C17.7028125 40.5484375 19.0228125 42.1984375 20.3828125 43.8984375 C15.80898318 47.62971931 13.48837451 49.27493488 7.41796875 49.17578125 C4.11167261 48.72521114 2.57037181 47.34335673 0.3828125 44.8984375 C-0.9296875 41.6484375 -0.9296875 41.6484375 -1.6171875 38.8984375 C-3.009375 40.2596875 -3.009375 40.2596875 -4.4296875 41.6484375 C-12.36733779 48.33444233 -20.99773177 49.52802752 -31.15234375 49.21875 C-38.29230794 48.55868567 -42.86962243 46.48380817 -47.6171875 40.8984375 C-50.12023128 37.14387183 -50.06998824 35.35097816 -49.6171875 30.8984375 C-46.84640813 25.46344719 -43.31158345 22.3135215 -37.59667969 20.12451172 C-30.31652977 17.80922071 -23.07543146 16.9538356 -15.4921875 16.2109375 C-13.62820313 16.01661133 -13.62820313 16.01661133 -11.7265625 15.81835938 C-8.69087744 15.50311516 -5.65458196 15.19667882 -2.6171875 14.8984375 C-1.96671854 12.50632651 -1.96671854 12.50632651 -1.6171875 9.8984375 C-4.12141734 6.52735886 -6.67108123 5.14457632 -10.6171875 3.8984375 C-19.64971368 2.7819423 -28.73411325 2.82239507 -36.76953125 7.4140625 C-38.79278995 9.03951346 -40.1597914 10.76031407 -41.6171875 12.8984375 C-43.78593002 12.39239758 -45.61686377 11.89859937 -47.6171875 10.8984375 C-47.6171875 8.7734375 -47.6171875 8.7734375 -46.6171875 5.8984375 C-34.20754736 -5.94847433 -14.97227837 -8.06199605 0 0 Z " fill="#D950AA" transform="translate(303.6171875,523.1015625)"/>
<path d="M0 0 C5.48547204 3.96515395 9.39986758 9.38081867 11 16 C11 18.97 11 21.94 11 25 C-5.83 25 -22.66 25 -40 25 C-36.00037138 32.99925723 -34.09778277 35.91516315 -26.4375 39.8125 C-16.87644694 42.9571049 -7.96469044 41.16569963 1.125 37.484375 C4.09368829 35.95162833 6.47257135 34.174332 9 32 C10.32 32.99 11.64 33.98 13 35 C12.43951652 38.46752445 11.4682274 39.88135055 8.6875 42 C-0.93088748 48.71922814 -11.47952818 50.2192292 -23 49 C-31.67695613 47.06453861 -38.90897715 42.98579263 -44.375 35.9375 C-48.24689343 28.93830804 -48.89710477 22.95118124 -48 15 C-45.53596068 7.36720842 -39.9050002 2.11129809 -33.26953125 -2.09765625 C-23.57182636 -6.70031972 -9.07378232 -5.12865957 0 0 Z " fill="#D950AA" transform="translate(236,523)"/>
<path d="M0 0 C5.48547204 3.96515395 9.39986758 9.38081867 11 16 C11 18.97 11 21.94 11 25 C-5.83 25 -22.66 25 -40 25 C-36.00037138 32.99925723 -34.09778277 35.91516315 -26.4375 39.8125 C-16.87644694 42.9571049 -7.96469044 41.16569963 1.125 37.484375 C4.09368829 35.95162833 6.47257135 34.174332 9 32 C10.32 32.99 11.64 33.98 13 35 C12.43951652 38.46752445 11.4682274 39.88135055 8.6875 42 C-0.93088748 48.71922814 -11.47952818 50.2192292 -23 49 C-31.67695613 47.06453861 -38.90897715 42.98579263 -44.375 35.9375 C-48.24689343 28.93830804 -48.89710477 22.95118124 -48 15 C-45.53596068 7.36720842 -39.9050002 2.11129809 -33.26953125 -2.09765625 C-23.57182636 -6.70031972 -9.07378232 -5.12865957 0 0 Z " fill="#D950AA" transform="translate(836,523)"/>
<path d="M0 0 C6.331875 -0.061875 12.66375 -0.12375 19.1875 -0.1875 C22.1423938 -0.22846802 22.1423938 -0.22846802 25.15698242 -0.27026367 C38.35087332 -0.37768684 51.60780606 -0.30048872 62 9 C68.79658119 16.21483234 71.57189125 23.9860658 71.4375 33.8125 C71.42920166 34.59931152 71.42090332 35.38612305 71.41235352 36.19677734 C71.13986953 45.6396564 68.68097717 53.35290822 62.05078125 60.28125 C53.36055171 67.56449 43.00840338 69.32502021 32.03125 69.1953125 C31.21366211 69.19329834 30.39607422 69.19128418 29.55371094 69.18920898 C26.5357492 69.1788428 23.51786822 69.15092118 20.5 69.125 C13.735 69.08375 6.97 69.0425 0 69 C0 46.23 0 23.46 0 0 Z M8 7 C8 25.15 8 43.3 8 62 C13.053125 62.0825 18.10625 62.165 23.3125 62.25 C24.88298096 62.28641602 26.45346191 62.32283203 28.0715332 62.36035156 C38.65297155 62.44346415 46.99365365 60.79964276 56 55 C57.55394206 53.21228661 57.55394206 53.21228661 58.6875 51.1875 C59.08324219 50.54167969 59.47898437 49.89585937 59.88671875 49.23046875 C63.75877718 41.47276571 64.49906296 32.67213011 62.27734375 24.265625 C58.9557259 16.25070907 53.43910971 12.25026568 45.89453125 8.42578125 C39.01136598 5.87686769 31.22947448 6.69283243 24 6.8125 C18.72 6.874375 13.44 6.93625 8 7 Z " fill="#DD50AC" transform="translate(710,501)"/>
<path d="M0 0 C4.79477485 4.22964485 8.4492498 8.73933529 9.28125 15.17578125 C9.71241642 22.10678153 7.88964698 27.28232049 4 33 C0.23083478 37.11619833 -3.84058494 39.74126824 -9.390625 40.40625 C-22.0162921 40.71294637 -22.0162921 40.71294637 -27.48828125 35.64453125 C-28.23658203 34.83048828 -28.23658203 34.83048828 -29 34 C-29.78375 33.175 -30.5675 32.35 -31.375 31.5 C-35.30917792 25.44741859 -35.96535967 19.06924839 -35 12 C-32.37681525 5.17269326 -26.82860954 0.15972846 -20.5625 -3.375 C-13.05332965 -5.20650496 -6.62506319 -3.86731331 0 0 Z " fill="#00D6FD" transform="translate(799,354)"/>
<path d="M0 0 C5.30241361 -0.06902853 10.6032561 -0.12871364 15.90576172 -0.16479492 C17.70789892 -0.1798424 19.50999973 -0.2002853 21.31201172 -0.22631836 C23.90862021 -0.26288021 26.50474275 -0.27976681 29.1015625 -0.29296875 C30.30191635 -0.31619453 30.30191635 -0.31619453 31.52651978 -0.33988953 C37.53625465 -0.34168053 41.32814587 1.24220123 46.375 4.5625 C48.99317152 8.48975728 48.71180831 12.43256333 48 17 C45.72093101 21.46317677 42.85751719 22.7223927 38.22973633 24.38467407 C34.58861623 25.38949046 31.09811161 25.37087636 27.34375 25.29296875 C26.16214294 25.28660149 26.16214294 25.28660149 24.95666504 25.28010559 C22.4707441 25.26347617 19.98567081 25.22585614 17.5 25.1875 C15.80209514 25.17243271 14.10417742 25.15874791 12.40625 25.14648438 C8.27025376 25.11619143 4.13606185 25.0574453 0 25 C0 16.75 0 8.5 0 0 Z " fill="#373D46" transform="translate(544,538)"/>
<path d="M0 0 C5.30241361 -0.06902853 10.6032561 -0.12871364 15.90576172 -0.16479492 C17.70789892 -0.1798424 19.50999973 -0.2002853 21.31201172 -0.22631836 C23.90862021 -0.26288021 26.50474275 -0.27976681 29.1015625 -0.29296875 C30.30191635 -0.31619453 30.30191635 -0.31619453 31.52651978 -0.33988953 C37.53625465 -0.34168053 41.32814587 1.24220123 46.375 4.5625 C48.99317152 8.48975728 48.71180831 12.43256333 48 17 C45.72093101 21.46317677 42.85751719 22.7223927 38.22973633 24.38467407 C34.58861623 25.38949046 31.09811161 25.37087636 27.34375 25.29296875 C26.16214294 25.28660149 26.16214294 25.28660149 24.95666504 25.28010559 C22.4707441 25.26347617 19.98567081 25.22585614 17.5 25.1875 C15.80209514 25.17243271 14.10417742 25.15874791 12.40625 25.14648438 C8.27025376 25.11619143 4.13606185 25.0574453 0 25 C0 16.75 0 8.5 0 0 Z " fill="#373D46" transform="translate(126,538)"/>
<path d="M0 0 C5.30241361 -0.06902853 10.6032561 -0.12871364 15.90576172 -0.16479492 C17.70789892 -0.1798424 19.50999973 -0.2002853 21.31201172 -0.22631836 C23.90862021 -0.26288021 26.50474275 -0.27976681 29.1015625 -0.29296875 C30.30191635 -0.31619453 30.30191635 -0.31619453 31.52651978 -0.33988953 C37.63613603 -0.3417103 41.76610252 0.94246285 46.375 5.1875 C48.54357238 8.94079835 48.6711034 11.76688625 48 16 C46.73538679 19.70953209 44.89611409 21.3331004 41.53125 23.125 C33.9717672 26.37159893 25.49491871 25.41663474 17.4375 25.25 C15.74416174 25.22990488 14.05080047 25.21165943 12.35742188 25.1953125 C8.23724127 25.15497789 4.12029877 25.07665672 0 25 C0 16.75 0 8.5 0 0 Z " fill="#373D46" transform="translate(617,538)"/>
<path d="M0 0 C17.16 0 34.32 0 52 0 C52 8 52 8 49.31640625 10.94921875 C48.0841822 11.88757496 46.83115499 12.79901647 45.5625 13.6875 C44.56053589 14.43725098 44.56053589 14.43725098 43.53833008 15.20214844 C42.11089347 16.2684702 40.6756211 17.3243688 39.23339844 18.37060547 C36.23423359 20.5586713 33.29517058 22.82103453 30.35327148 25.08520508 C28.29825389 26.66486521 26.23373637 28.23131771 24.16796875 29.796875 C19.39414093 33.46560866 14.70139047 37.23888762 10 41 C24.19 41.33 38.38 41.66 53 42 C53 44.31 53 46.62 53 49 C34.85 49 16.7 49 -2 49 C-2 41 -2 41 0.16796875 38.3828125 C1.66263672 37.26519531 1.66263672 37.26519531 3.1875 36.125 C3.72777832 35.70919678 4.26805664 35.29339355 4.82470703 34.86499023 C5.96431061 33.99181947 7.11233565 33.12954202 8.26806641 32.27783203 C9.93114923 31.05079855 11.568203 29.79658338 13.19921875 28.52734375 C15.32888721 26.87155439 17.46672468 25.22758583 19.61328125 23.59375 C23.88920809 20.33110579 28.10970267 16.99840228 32.33154297 13.66625977 C35.19654667 11.40729845 38.08067876 9.18949093 41 7 C20.705 6.505 20.705 6.505 0 6 C0 4.02 0 2.04 0 0 Z " fill="#DC50AC" transform="translate(447,521)"/>
<path d="M0 0 C0 5.28 0 10.56 0 16 C8.91 16 17.82 16 27 16 C27 18.31 27 20.62 27 23 C18.09 23 9.18 23 0 23 C0.0511421 27.46726276 0.11418462 31.93109313 0.20751953 36.3972168 C0.2356717 37.91500685 0.2569149 39.43294193 0.27099609 40.95092773 C0.29250723 43.13861021 0.33919228 45.32455965 0.390625 47.51171875 C0.41157227 48.82615967 0.43251953 50.14060059 0.45410156 51.49487305 C1.07767203 55.49871976 2.13395298 57.18635235 5 60 C9.82210529 61.28112038 14.07656476 60.44522771 18.5 58.3125 C21.07068171 55.93461942 22.0717492 54.34170288 23 51 C24.98 51.66 26.96 52.32 29 53 C28.73079965 56.85853832 28.26710588 58.68095686 25.75 61.6875 C19.86402177 66.63707261 14.98787121 68.39016201 7.37890625 68.27734375 C1.77360686 67.62385236 -1.96204165 65.30410152 -5.4375 60.9375 C-7.86326142 56.37706853 -8.13570489 52.75294961 -8.09765625 47.70703125 C-8.0962413 47.00100266 -8.09482635 46.29497406 -8.09336853 45.56755066 C-8.08777764 43.31582374 -8.07522688 41.06419679 -8.0625 38.8125 C-8.05748382 37.28450665 -8.05292112 35.75651173 -8.04882812 34.22851562 C-8.0386627 30.48560772 -8.01908569 26.74291557 -8 23 C-12.62 23 -17.24 23 -22 23 C-22 20.69 -22 18.38 -22 16 C-17.38 16 -12.76 16 -8 16 C-8 11.05 -8 6.1 -8 1 C-4 0 -4 0 0 0 Z " fill="#D54FA8" transform="translate(346,504)"/>
<path d="M0 0 C4.99930575 -0.06911483 9.99693391 -0.1287727 14.99633789 -0.16479492 C16.69463742 -0.17982126 18.39289855 -0.20024823 20.09106445 -0.22631836 C22.54127518 -0.26297449 24.99097 -0.27978789 27.44140625 -0.29296875 C28.56839684 -0.31619453 28.56839684 -0.31619453 29.71815491 -0.33988953 C35.56965204 -0.34173051 40.32615381 0.75741933 44.9375 4.625 C46.62537111 8.39788836 46.77361275 11.9511856 46 16 C43.1576686 19.81684503 40.49014881 21.60686404 36 23 C33.17620634 23.16557141 30.45671366 23.23353164 27.63671875 23.1953125 C26.84473587 23.1924826 26.05275299 23.18965271 25.23677063 23.18673706 C22.72019001 23.17558863 20.20397211 23.15049422 17.6875 23.125 C15.97591662 23.11496329 14.26432763 23.10583864 12.55273438 23.09765625 C8.36823918 23.07737271 4.18452312 23.03821482 0 23 C0 15.41 0 7.82 0 0 Z " fill="#383D47" transform="translate(544,508)"/>
<path d="M0 0 C4.99930575 -0.06911483 9.99693391 -0.1287727 14.99633789 -0.16479492 C16.69463742 -0.17982126 18.39289855 -0.20024823 20.09106445 -0.22631836 C22.54127518 -0.26297449 24.99097 -0.27978789 27.44140625 -0.29296875 C28.56839684 -0.31619453 28.56839684 -0.31619453 29.71815491 -0.33988953 C35.56965204 -0.34173051 40.32615381 0.75741933 44.9375 4.625 C46.62537111 8.39788836 46.77361275 11.9511856 46 16 C43.1576686 19.81684503 40.49014881 21.60686404 36 23 C33.17620634 23.16557141 30.45671366 23.23353164 27.63671875 23.1953125 C26.84473587 23.1924826 26.05275299 23.18965271 25.23677063 23.18673706 C22.72019001 23.17558863 20.20397211 23.15049422 17.6875 23.125 C15.97591662 23.11496329 14.26432763 23.10583864 12.55273438 23.09765625 C8.36823918 23.07737271 4.18452312 23.03821482 0 23 C0 15.41 0 7.82 0 0 Z " fill="#383D47" transform="translate(126,508)"/>
<path d="M0 0 C4.98141263 -0.09224838 9.95981736 -0.17175286 14.94140625 -0.21972656 C16.63291511 -0.2397406 18.32435567 -0.26696073 20.015625 -0.30175781 C22.45850554 -0.35073065 24.90046511 -0.37307033 27.34375 -0.390625 C28.08991577 -0.41127014 28.83608154 -0.43191528 29.6048584 -0.45318604 C35.0893748 -0.45548697 39.47385003 0.8164092 44 4 C46.47862452 7.71793677 46.53102546 10.69279347 46 15 C44.63762243 18.40594393 43.52842573 19.66784239 40.42529297 21.6184082 C36.19545923 23.32451149 32.82589682 23.38259775 28.3203125 23.29296875 C27.50754852 23.28872391 26.69478455 23.28447906 25.85739136 23.28010559 C23.27958041 23.26340804 20.7025718 23.22577362 18.125 23.1875 C16.36980301 23.17244158 14.61459369 23.1587552 12.859375 23.14648438 C8.57236422 23.11609441 4.28707261 23.05735925 0 23 C0 15.41 0 7.82 0 0 Z " fill="#383D47" transform="translate(617,508)"/>
<path d="M0 0 C2.64 0 5.28 0 8 0 C10.52943837 5.03410821 13.0562161 10.06953962 15.58056641 15.10620117 C16.43921569 16.81847935 17.29858353 18.53039739 18.15869141 20.24194336 C19.39676179 22.70591812 20.63221959 25.17118783 21.8671875 27.63671875 C22.25059296 28.39836838 22.63399841 29.16001801 23.02902222 29.94474792 C24.52048014 32.92735104 25.93988925 35.84298947 27.13330078 38.96020508 C27.81535443 41.17780769 27.81535443 41.17780769 30 42 C30.27094482 41.13213867 30.54188965 40.26427734 30.82104492 39.37011719 C31.96105035 36.11134003 33.30751459 33.15722053 34.86328125 30.078125 C35.69956055 28.41523437 35.69956055 28.41523437 36.55273438 26.71875 C37.13345703 25.5740625 37.71417969 24.429375 38.3125 23.25 C38.88162109 22.12078125 39.45074219 20.9915625 40.03710938 19.828125 C41.15684387 17.60665405 42.27806132 15.38592986 43.40087891 13.16601562 C45.61413806 8.7841004 47.80905402 4.39310521 50 0 C52.64 0 55.28 0 58 0 C56.3286852 5.7456643 53.68091821 10.89241552 50.9921875 16.2109375 C50.26396286 17.66314194 50.26396286 17.66314194 49.52102661 19.14468384 C47.97610983 22.22336085 46.42564044 25.29920251 44.875 28.375 C43.82385068 30.46726304 42.7730653 32.55970896 41.72265625 34.65234375 C39.15264914 39.77035759 36.57765997 44.8858365 34 50 C30.7 50 27.4 50 24 50 C20.57695557 43.20322361 17.1590981 36.40387437 13.74609375 29.60205078 C12.58346705 27.28687607 11.41940765 24.97242027 10.25390625 22.65869141 C8.58219305 19.33943093 6.91559182 16.01764799 5.25 12.6953125 C4.7250293 11.65569366 4.20005859 10.61607483 3.65917969 9.54495239 C3.17868164 8.58410736 2.69818359 7.62326233 2.203125 6.63330078 C1.77676758 5.78502716 1.35041016 4.93675354 0.91113281 4.06277466 C0 2 0 2 0 0 Z " fill="#D950AA" transform="translate(853,520)"/>
<path d="M0 0 C4.72160702 2.37616665 6.69541562 5.68601635 8.73828125 10.34375 C8.98828125 13.28125 8.98828125 13.28125 8.73828125 15.34375 C6.75828125 16.00375 4.77828125 16.66375 2.73828125 17.34375 C2.48433594 16.78945313 2.23039062 16.23515625 1.96875 15.6640625 C1.62457031 14.93960938 1.28039062 14.21515625 0.92578125 13.46875 C0.58933594 12.74945312 0.25289063 12.03015625 -0.09375 11.2890625 C-1.25638972 9.03832194 -1.25638972 9.03832194 -4.26171875 7.34375 C-8.58417258 6.69911403 -13.13463696 6.42727187 -17.2109375 8.18359375 C-21.351655 11.28130936 -23.1131217 15.47276455 -24.26171875 20.34375 C-24.75635823 25.50723252 -24.86463498 30.66162523 -24.94921875 35.84375 C-24.98244717 37.25263486 -25.0169418 38.66149045 -25.05273438 40.0703125 C-25.13482613 43.49471131 -25.20410686 46.91886644 -25.26171875 50.34375 C-27.90171875 50.34375 -30.54171875 50.34375 -33.26171875 50.34375 C-33.26171875 33.84375 -33.26171875 17.34375 -33.26171875 0.34375 C-30.95171875 0.34375 -28.64171875 0.34375 -26.26171875 0.34375 C-25.60171875 2.65375 -24.94171875 4.96375 -24.26171875 7.34375 C-23.70484375 6.580625 -23.14796875 5.8175 -22.57421875 5.03125 C-16.6824011 -1.81599754 -8.47178134 -2.45813344 0 0 Z " fill="#D64FA8" transform="translate(414.26171875,519.65625)"/>
<path d="M0 0 C0.58567459 4.6853967 0.22282322 7.26516277 -2.5 11.1875 C-6.46818619 16.05112013 -11.17054598 18.05684866 -17 20 C-19.78612399 20.17466964 -22.52492412 20.27697439 -25.3125 20.3125 C-26.05951172 20.34150391 -26.80652344 20.37050781 -27.57617188 20.40039062 C-32.87420405 20.46085982 -35.75746092 19.44007433 -40 16 C-41 15 -41 15 -41.3125 12.1875 C-41 9 -41 9 -39.375 6.75 C-34.93969809 3.4818828 -30.03245745 2.72584477 -24.6484375 2.1484375 C-23.46765625 2.01953125 -22.286875 1.890625 -21.0703125 1.7578125 C-19.85085938 1.63148438 -18.63140625 1.50515625 -17.375 1.375 C-16.1478125 1.2409375 -14.920625 1.106875 -13.65625 0.96875 C-9.07464468 0.47750567 -4.61122157 0 0 0 Z " fill="#393D47" transform="translate(303,545)"/>
<path d="M0 0 C3.63423926 2.24071832 5.99399421 4.83956715 8.375 8.375 C8.87 10.85 8.87 10.85 9.375 13.375 C-4.485 13.375 -18.345 13.375 -32.625 13.375 C-31.38920606 5.96023633 -29.34944835 4.56640411 -23.75 0.0625 C-17.08351193 -3.52714742 -6.79204603 -3.07906087 0 0 Z " fill="#383D47" transform="translate(829.625,527.625)"/>
<path d="M0 0 C3.63423926 2.24071832 5.99399421 4.83956715 8.375 8.375 C8.87 10.85 8.87 10.85 9.375 13.375 C-4.485 13.375 -18.345 13.375 -32.625 13.375 C-31.38920606 5.96023633 -29.34944835 4.56640411 -23.75 0.0625 C-17.08351193 -3.52714742 -6.79204603 -3.07906087 0 0 Z " fill="#383D47" transform="translate(229.625,527.625)"/>
<path d="M0 0 C2.31 0 4.62 0 7 0 C7 16.17 7 32.34 7 49 C4.69 49 2.38 49 0 49 C0 32.83 0 16.66 0 0 Z " fill="#E151AF" transform="translate(431,521)"/>
<path d="M0 0 C2.58324013 1.29162007 2.69721131 2.27331625 3.7265625 4.9296875 C4.190625 6.12271484 4.190625 6.12271484 4.6640625 7.33984375 C4.98117187 8.17644531 5.29828125 9.01304687 5.625 9.875 C6.11226562 11.11830078 6.11226562 11.11830078 6.609375 12.38671875 C9 18.60435268 9 18.60435268 9 22 C6.45953542 22.50688605 3.91791124 23.00566874 1.375 23.5 C0.66214844 23.64308594 -0.05070313 23.78617187 -0.78515625 23.93359375 C-4.92144935 24.73049426 -8.76433679 25.16034056 -13 25 C-11.68706289 21.55688942 -10.1856658 18.35788604 -8.3984375 15.13671875 C-7.66367187 13.80737305 -7.66367187 13.80737305 -6.9140625 12.45117188 C-6.40617188 11.53916016 -5.89828125 10.62714844 -5.375 9.6875 C-4.859375 8.75615234 -4.34375 7.82480469 -3.8125 6.86523438 C-2.54426483 4.57536531 -1.27335838 2.28702285 0 0 Z " fill="#34424C" transform="translate(836,385)"/>
<path d="M0 0 C9.24 0 18.48 0 28 0 C26.3692101 3.26157979 24.84469679 5.66964427 22.625 8.5 C22.03976562 9.2528125 21.45453125 10.005625 20.8515625 10.78125 C19.01007066 12.9879322 17.06288066 15.0007324 15 17 C11.98016563 15.67872148 10.21363711 14.38106741 8.203125 11.77734375 C7.71972656 11.15666016 7.23632812 10.53597656 6.73828125 9.89648438 C6.24714844 9.25001953 5.75601563 8.60355469 5.25 7.9375 C4.49009766 6.96200195 4.49009766 6.96200195 3.71484375 5.96679688 C0 1.1555235 0 1.1555235 0 0 Z " fill="#33424D" transform="translate(772,423)"/>
<path d="M0 0 C3.49251704 4.07460321 6.05287301 8.38551577 8.625 13.0625 C9.01945313 13.76955078 9.41390625 14.47660156 9.8203125 15.20507812 C11.61787328 18.43886568 13.36074417 21.68254571 15 25 C12.47818712 24.71542568 9.95778804 24.42254942 7.4375 24.125 C6.38079102 24.00705078 6.38079102 24.00705078 5.30273438 23.88671875 C0.6868291 23.33366097 -3.56176603 22.38804164 -8 21 C-7.04908804 18.060045 -6.08799565 15.12351697 -5.125 12.1875 C-4.72087891 10.93743164 -4.72087891 10.93743164 -4.30859375 9.66210938 C-4.04433594 8.85966797 -3.78007813 8.05722656 -3.5078125 7.23046875 C-3.26691895 6.49207764 -3.02602539 5.75368652 -2.77783203 4.99291992 C-2 3 -2 3 0 0 Z " fill="#33434D" transform="translate(735,386)"/>
<path d="M0 0 C-4.57431698 8.05729945 -9.18437456 16.08340363 -14 24 C-17.3540808 21.31476816 -18.29781637 18.03958259 -19.6875 14.0625 C-20.12449219 12.83660156 -20.56148437 11.61070312 -21.01171875 10.34765625 C-22 7 -22 7 -22 3 C-19.27172635 2.49465273 -16.54255306 1.99556155 -13.8125 1.5 C-13.04357422 1.35691406 -12.27464844 1.21382813 -11.48242188 1.06640625 C-7.60578227 0.36761285 -3.958529 -0.19039017 0 0 Z " fill="#33424D" transform="translate(750,335)"/>
<path d="M0 0 C3.01983437 1.32127852 4.78636289 2.61893259 6.796875 5.22265625 C7.52197266 6.15368164 7.52197266 6.15368164 8.26171875 7.10351562 C8.75285156 7.74998047 9.24398437 8.39644531 9.75 9.0625 C10.25660156 9.71283203 10.76320313 10.36316406 11.28515625 11.03320312 C15 15.8444765 15 15.8444765 15 17 C5.76 17 -3.48 17 -13 17 C-10.19004991 12.78507486 -7.45984932 8.99570066 -4.25 5.125 C-3.45078125 4.15820312 -2.6515625 3.19140625 -1.828125 2.1953125 C-1.22484375 1.47085937 -0.6215625 0.74640625 0 0 Z " fill="#34404A" transform="translate(785,305)"/>
<path d="M0 0 C7.59064664 0.48701051 14.67059167 1.99763587 22 4 C20.62820313 11.48252838 18.07836721 18.05604954 15 25 C12.88749783 22.27486447 11.05544119 19.51094097 9.3359375 16.5234375 C8.85382812 15.688125 8.37171875 14.8528125 7.875 13.9921875 C7.38 13.12851562 6.885 12.26484375 6.375 11.375 C5.87226562 10.50359375 5.36953125 9.6321875 4.8515625 8.734375 C1.17426658 2.34853316 1.17426658 2.34853316 0 0 Z " fill="#34414B" transform="translate(822,335)"/>
<path d="M0 0 C2 2 2 2 2.3125 5 C2.1578125 6.485 2.1578125 6.485 2 8 C-1.23253796 10.15502531 -2.25150923 10.46856135 -6 10 C-7.8125 8.8125 -7.8125 8.8125 -9 7 C-9.4375 4.5 -9.4375 4.5 -9 2 C-6.07557433 -1.24936186 -4.04996841 -1.38551551 0 0 Z " fill="#D54FA7" transform="translate(924,561)"/>
<path d="M0 0 C1.8125 1.1875 1.8125 1.1875 3 3 C3.4334014 5.88934264 3.42525784 7.35092224 1.8125 9.8125 C-0.64907776 11.42525784 -2.11065736 11.4334014 -5 11 C-6.875 9.9375 -6.875 9.9375 -8 8 C-7.8125 4.375 -7.8125 4.375 -7 1 C-4.45132831 -0.27433584 -2.82594567 -0.27570202 0 0 Z " fill="#D74FA9" transform="translate(437,500)"/>
</svg>
